# xmcd
#
# Track frame offsets: 
#        150
#        16155
#        32330
#        51000
#        70487
#        93380
#        112482
#        125202
#        147555
#        162102
#        181725
#        198650
#        215847
#        232610
#        246735
#        266245
#
# Disc length: 3740 seconds
#
# Revision: 7
# Processed by: cddbd v1.5.2PL0 Copyright (c) Steve Scherf et al.
# Submitted via: ExactAudioCopy v1.1
#
DISCID=f60e9a10
DTITLE=Pino Daniele - The Best Of - Yes I Know My Way
DYEAR=1998
DGENRE=Blues
TTITLE0=Quando
TTITLE1=Io Per Lei
TTITLE2=Che Male C'e'
TTITLE3=Amore Senza Fine
TTITLE4=Senza Peccato
TTITLE5=Dubbi Non Ho
TTITLE6=Resta Resta Cu'Mme
TTITLE7=Anna Verra'
TTITLE8=Che Soddisfazione
TTITLE9=Quanno Chiove
TTITLE10=Napule E'
TTITLE11=A Testa In Giu'
TTITLE12=Je So' Pazzo
TTITLE13=A Me Me Piace 'O Blues
TTITLE14=Che Dio Ti Benedica
TTITLE15=Per Te
EXTD=YEAR: 1998
EXTT0=
EXTT1=
EXTT2=
EXTT3=
EXTT4=
EXTT5=
EXTT6=
EXTT7=
EXTT8=
EXTT9=
EXTT10=
EXTT11=
EXTT12=
EXTT13=
EXTT14=
EXTT15=
PLAYORDER=
